<mxfile host="app.diagrams.net" agent="Mozilla/5.0 (X11; Linux x86_64) AppleWebKit/537.36 (KHTML, like Gecko) Chrome/120.0.0.0 Safari/537.36" version="24.7.7">
  <diagram name="Page-1" id="CnMJsF_aXhYgnxT5Eioj">
    <mxGraphModel dx="1364" dy="759" grid="1" gridSize="10" guides="1" tooltips="1" connect="1" arrows="1" fold="1" page="1" pageScale="1" pageWidth="850" pageHeight="1100" math="0" shadow="0">
      <root>
        <mxCell id="0" />
        <mxCell id="1" parent="0" />
        <mxCell id="EH5Xe4ztrHVGe37uZus8-4" style="edgeStyle=orthogonalEdgeStyle;rounded=0;orthogonalLoop=1;jettySize=auto;html=1;entryX=0;entryY=0.5;entryDx=0;entryDy=0;fillColor=#a20025;strokeColor=#6F0000;" parent="1" source="EH5Xe4ztrHVGe37uZus8-1" target="EH5Xe4ztrHVGe37uZus8-3" edge="1">
          <mxGeometry relative="1" as="geometry" />
        </mxCell>
        <mxCell id="EH5Xe4ztrHVGe37uZus8-5" value="played_with" style="edgeLabel;html=1;align=center;verticalAlign=middle;resizable=0;points=[];" parent="EH5Xe4ztrHVGe37uZus8-4" vertex="1" connectable="0">
          <mxGeometry x="-0.28" y="-1" relative="1" as="geometry">
            <mxPoint as="offset" />
          </mxGeometry>
        </mxCell>
        <mxCell id="EH5Xe4ztrHVGe37uZus8-45" style="edgeStyle=orthogonalEdgeStyle;rounded=0;orthogonalLoop=1;jettySize=auto;html=1;exitX=1;exitY=0.75;exitDx=0;exitDy=0;fillColor=#a20025;strokeColor=#6F0000;entryX=0.75;entryY=1;entryDx=0;entryDy=0;" parent="1" source="EH5Xe4ztrHVGe37uZus8-3" target="EH5Xe4ztrHVGe37uZus8-3" edge="1">
          <mxGeometry relative="1" as="geometry">
            <Array as="points">
              <mxPoint x="490" y="235" />
              <mxPoint x="490" y="270" />
              <mxPoint x="390" y="270" />
            </Array>
          </mxGeometry>
        </mxCell>
        <mxCell id="EH5Xe4ztrHVGe37uZus8-46" value="won, lost" style="edgeLabel;html=1;align=center;verticalAlign=middle;resizable=0;points=[];" parent="EH5Xe4ztrHVGe37uZus8-45" vertex="1" connectable="0">
          <mxGeometry x="-0.1677" y="1" relative="1" as="geometry">
            <mxPoint as="offset" />
          </mxGeometry>
        </mxCell>
        <mxCell id="EH5Xe4ztrHVGe37uZus8-67" style="edgeStyle=orthogonalEdgeStyle;rounded=0;orthogonalLoop=1;jettySize=auto;html=1;entryX=1;entryY=0.5;entryDx=0;entryDy=0;fillColor=#a20025;strokeColor=#6F0000;" parent="1" source="EH5Xe4ztrHVGe37uZus8-1" target="EH5Xe4ztrHVGe37uZus8-66" edge="1">
          <mxGeometry relative="1" as="geometry" />
        </mxCell>
        <mxCell id="EH5Xe4ztrHVGe37uZus8-68" value="From" style="edgeLabel;html=1;align=center;verticalAlign=middle;resizable=0;points=[];" parent="EH5Xe4ztrHVGe37uZus8-67" vertex="1" connectable="0">
          <mxGeometry x="0.0389" y="-2" relative="1" as="geometry">
            <mxPoint as="offset" />
          </mxGeometry>
        </mxCell>
        <mxCell id="EH5Xe4ztrHVGe37uZus8-1" value="Player" style="rounded=1;whiteSpace=wrap;html=1;fillColor=#a20025;fontColor=#ffffff;strokeColor=#6F0000;" parent="1" vertex="1">
          <mxGeometry x="200" y="50" width="120" height="60" as="geometry" />
        </mxCell>
        <mxCell id="EH5Xe4ztrHVGe37uZus8-2" value="Competition" style="rounded=1;whiteSpace=wrap;html=1;fillColor=#a20025;fontColor=#ffffff;strokeColor=#6F0000;" parent="1" vertex="1">
          <mxGeometry x="430" y="50" width="120" height="60" as="geometry" />
        </mxCell>
        <mxCell id="EH5Xe4ztrHVGe37uZus8-8" style="edgeStyle=orthogonalEdgeStyle;rounded=0;orthogonalLoop=1;jettySize=auto;html=1;fillColor=#a20025;strokeColor=#6F0000;" parent="1" source="EH5Xe4ztrHVGe37uZus8-3" target="EH5Xe4ztrHVGe37uZus8-2" edge="1">
          <mxGeometry relative="1" as="geometry" />
        </mxCell>
        <mxCell id="EH5Xe4ztrHVGe37uZus8-9" value="competes" style="edgeLabel;html=1;align=center;verticalAlign=middle;resizable=0;points=[];" parent="EH5Xe4ztrHVGe37uZus8-8" vertex="1" connectable="0">
          <mxGeometry x="0.2556" relative="1" as="geometry">
            <mxPoint y="-7" as="offset" />
          </mxGeometry>
        </mxCell>
        <mxCell id="EH5Xe4ztrHVGe37uZus8-3" value="Team" style="rounded=1;whiteSpace=wrap;html=1;fillColor=#a20025;fontColor=#ffffff;strokeColor=#6F0000;" parent="1" vertex="1">
          <mxGeometry x="300" y="190" width="120" height="60" as="geometry" />
        </mxCell>
        <mxCell id="EH5Xe4ztrHVGe37uZus8-14" style="edgeStyle=orthogonalEdgeStyle;rounded=0;orthogonalLoop=1;jettySize=auto;html=1;entryX=0;entryY=0.5;entryDx=0;entryDy=0;fillColor=#a20025;strokeColor=#6F0000;" parent="1" source="EH5Xe4ztrHVGe37uZus8-10" target="EH5Xe4ztrHVGe37uZus8-13" edge="1">
          <mxGeometry relative="1" as="geometry" />
        </mxCell>
        <mxCell id="EH5Xe4ztrHVGe37uZus8-15" value="of type" style="edgeLabel;html=1;align=center;verticalAlign=middle;resizable=0;points=[];" parent="EH5Xe4ztrHVGe37uZus8-14" vertex="1" connectable="0">
          <mxGeometry x="-0.056" y="1" relative="1" as="geometry">
            <mxPoint as="offset" />
          </mxGeometry>
        </mxCell>
        <mxCell id="EH5Xe4ztrHVGe37uZus8-23" value="gets Ability" style="edgeStyle=orthogonalEdgeStyle;rounded=0;orthogonalLoop=1;jettySize=auto;html=1;fillColor=#a20025;strokeColor=#6F0000;" parent="1" source="EH5Xe4ztrHVGe37uZus8-10" target="EH5Xe4ztrHVGe37uZus8-22" edge="1">
          <mxGeometry relative="1" as="geometry" />
        </mxCell>
        <mxCell id="EH5Xe4ztrHVGe37uZus8-10" value="Pokemon" style="rounded=1;whiteSpace=wrap;html=1;fillColor=#a20025;fontColor=#ffffff;strokeColor=#6F0000;" parent="1" vertex="1">
          <mxGeometry x="300" y="550" width="120" height="60" as="geometry" />
        </mxCell>
        <mxCell id="EH5Xe4ztrHVGe37uZus8-13" value="Type" style="rounded=1;whiteSpace=wrap;html=1;fillColor=#a20025;fontColor=#ffffff;strokeColor=#6F0000;" parent="1" vertex="1">
          <mxGeometry x="510" y="540" width="120" height="60" as="geometry" />
        </mxCell>
        <mxCell id="EH5Xe4ztrHVGe37uZus8-48" style="edgeStyle=orthogonalEdgeStyle;rounded=0;orthogonalLoop=1;jettySize=auto;html=1;fillColor=#a20025;strokeColor=#6F0000;" parent="1" source="EH5Xe4ztrHVGe37uZus8-16" target="EH5Xe4ztrHVGe37uZus8-13" edge="1">
          <mxGeometry relative="1" as="geometry" />
        </mxCell>
        <mxCell id="EH5Xe4ztrHVGe37uZus8-49" value="Of type" style="edgeLabel;html=1;align=center;verticalAlign=middle;resizable=0;points=[];" parent="EH5Xe4ztrHVGe37uZus8-48" vertex="1" connectable="0">
          <mxGeometry x="0.0118" y="-1" relative="1" as="geometry">
            <mxPoint as="offset" />
          </mxGeometry>
        </mxCell>
        <mxCell id="EH5Xe4ztrHVGe37uZus8-52" style="edgeStyle=orthogonalEdgeStyle;rounded=0;orthogonalLoop=1;jettySize=auto;html=1;exitX=0;exitY=1;exitDx=0;exitDy=0;entryX=1;entryY=0;entryDx=0;entryDy=0;endArrow=none;endFill=0;startArrow=classic;startFill=1;fillColor=#a20025;strokeColor=#6F0000;" parent="1" source="EH5Xe4ztrHVGe37uZus8-16" target="EH5Xe4ztrHVGe37uZus8-10" edge="1">
          <mxGeometry relative="1" as="geometry" />
        </mxCell>
        <mxCell id="EH5Xe4ztrHVGe37uZus8-53" value="Learns" style="edgeLabel;html=1;align=center;verticalAlign=middle;resizable=0;points=[];" parent="EH5Xe4ztrHVGe37uZus8-52" vertex="1" connectable="0">
          <mxGeometry x="-0.0759" y="-4" relative="1" as="geometry">
            <mxPoint as="offset" />
          </mxGeometry>
        </mxCell>
        <mxCell id="EH5Xe4ztrHVGe37uZus8-16" value="Move&lt;div&gt;(Special, Physical, Status)&lt;/div&gt;" style="rounded=1;whiteSpace=wrap;html=1;fillColor=#a20025;fontColor=#ffffff;strokeColor=#6F0000;" parent="1" vertex="1">
          <mxGeometry x="510" y="320" width="120" height="60" as="geometry" />
        </mxCell>
        <mxCell id="EH5Xe4ztrHVGe37uZus8-22" value="Ability" style="rounded=1;whiteSpace=wrap;html=1;fillColor=#a20025;fontColor=#ffffff;strokeColor=#6F0000;" parent="1" vertex="1">
          <mxGeometry x="60" y="550" width="120" height="60" as="geometry" />
        </mxCell>
        <mxCell id="EH5Xe4ztrHVGe37uZus8-24" value="Item" style="rounded=1;whiteSpace=wrap;html=1;fillColor=#a20025;fontColor=#ffffff;strokeColor=#6F0000;" parent="1" vertex="1">
          <mxGeometry x="30" y="320" width="120" height="60" as="geometry" />
        </mxCell>
        <mxCell id="EH5Xe4ztrHVGe37uZus8-29" style="edgeStyle=orthogonalEdgeStyle;rounded=0;orthogonalLoop=1;jettySize=auto;html=1;entryX=1;entryY=0.5;entryDx=0;entryDy=0;exitX=0.5;exitY=1;exitDx=0;exitDy=0;fillColor=#a20025;strokeColor=#6F0000;" parent="1" source="EH5Xe4ztrHVGe37uZus8-13" edge="1">
          <mxGeometry relative="1" as="geometry">
            <mxPoint x="600" y="550" as="sourcePoint" />
            <mxPoint x="660" y="580" as="targetPoint" />
            <Array as="points">
              <mxPoint x="600" y="610" />
              <mxPoint x="600" y="670" />
              <mxPoint x="715" y="670" />
              <mxPoint x="715" y="580" />
            </Array>
          </mxGeometry>
        </mxCell>
        <mxCell id="EH5Xe4ztrHVGe37uZus8-30" value="does_double_damage,&lt;div&gt;&amp;nbsp;does_half_damage,&lt;/div&gt;&lt;div&gt;&amp;nbsp;does_no_damage&lt;div&gt;&lt;br&gt;&lt;/div&gt;&lt;/div&gt;" style="edgeLabel;html=1;align=center;verticalAlign=middle;resizable=0;points=[];" parent="EH5Xe4ztrHVGe37uZus8-29" vertex="1" connectable="0">
          <mxGeometry x="0.2824" y="-2" relative="1" as="geometry">
            <mxPoint x="7" y="4" as="offset" />
          </mxGeometry>
        </mxCell>
        <mxCell id="EH5Xe4ztrHVGe37uZus8-32" style="edgeStyle=orthogonalEdgeStyle;rounded=0;orthogonalLoop=1;jettySize=auto;html=1;entryX=1;entryY=0.5;entryDx=0;entryDy=0;fillColor=#a20025;strokeColor=#6F0000;" parent="1" source="EH5Xe4ztrHVGe37uZus8-31" target="EH5Xe4ztrHVGe37uZus8-24" edge="1">
          <mxGeometry relative="1" as="geometry">
            <Array as="points">
              <mxPoint x="260" y="350" />
              <mxPoint x="260" y="350" />
            </Array>
          </mxGeometry>
        </mxCell>
        <mxCell id="EH5Xe4ztrHVGe37uZus8-33" value="Holds" style="edgeLabel;html=1;align=center;verticalAlign=middle;resizable=0;points=[];" parent="EH5Xe4ztrHVGe37uZus8-32" vertex="1" connectable="0">
          <mxGeometry y="-2" relative="1" as="geometry">
            <mxPoint as="offset" />
          </mxGeometry>
        </mxCell>
        <mxCell id="EH5Xe4ztrHVGe37uZus8-34" style="edgeStyle=orthogonalEdgeStyle;rounded=0;orthogonalLoop=1;jettySize=auto;html=1;entryX=0.5;entryY=1;entryDx=0;entryDy=0;fillColor=#a20025;strokeColor=#6F0000;" parent="1" source="EH5Xe4ztrHVGe37uZus8-31" target="EH5Xe4ztrHVGe37uZus8-3" edge="1">
          <mxGeometry relative="1" as="geometry" />
        </mxCell>
        <mxCell id="EH5Xe4ztrHVGe37uZus8-35" value="member" style="edgeLabel;html=1;align=center;verticalAlign=middle;resizable=0;points=[];" parent="EH5Xe4ztrHVGe37uZus8-34" vertex="1" connectable="0">
          <mxGeometry x="0.0857" y="1" relative="1" as="geometry">
            <mxPoint as="offset" />
          </mxGeometry>
        </mxCell>
        <mxCell id="EH5Xe4ztrHVGe37uZus8-36" style="edgeStyle=orthogonalEdgeStyle;rounded=0;orthogonalLoop=1;jettySize=auto;html=1;entryX=0.5;entryY=0;entryDx=0;entryDy=0;fillColor=#a20025;strokeColor=#6F0000;" parent="1" source="EH5Xe4ztrHVGe37uZus8-31" target="EH5Xe4ztrHVGe37uZus8-10" edge="1">
          <mxGeometry relative="1" as="geometry" />
        </mxCell>
        <mxCell id="EH5Xe4ztrHVGe37uZus8-37" value="species" style="edgeLabel;html=1;align=center;verticalAlign=middle;resizable=0;points=[];" parent="EH5Xe4ztrHVGe37uZus8-36" vertex="1" connectable="0">
          <mxGeometry x="-0.2" y="1" relative="1" as="geometry">
            <mxPoint as="offset" />
          </mxGeometry>
        </mxCell>
        <mxCell id="EH5Xe4ztrHVGe37uZus8-38" style="edgeStyle=orthogonalEdgeStyle;rounded=0;orthogonalLoop=1;jettySize=auto;html=1;exitX=0;exitY=0.75;exitDx=0;exitDy=0;entryX=0.5;entryY=0;entryDx=0;entryDy=0;fillColor=#a20025;strokeColor=#6F0000;" parent="1" source="EH5Xe4ztrHVGe37uZus8-31" target="EH5Xe4ztrHVGe37uZus8-22" edge="1">
          <mxGeometry relative="1" as="geometry">
            <Array as="points">
              <mxPoint x="200" y="365" />
              <mxPoint x="200" y="440" />
              <mxPoint x="120" y="440" />
            </Array>
          </mxGeometry>
        </mxCell>
        <mxCell id="EH5Xe4ztrHVGe37uZus8-39" value="has ability" style="edgeLabel;html=1;align=center;verticalAlign=middle;resizable=0;points=[];" parent="EH5Xe4ztrHVGe37uZus8-38" vertex="1" connectable="0">
          <mxGeometry x="-0.0571" y="-4" relative="1" as="geometry">
            <mxPoint as="offset" />
          </mxGeometry>
        </mxCell>
        <mxCell id="EH5Xe4ztrHVGe37uZus8-50" style="edgeStyle=orthogonalEdgeStyle;rounded=0;orthogonalLoop=1;jettySize=auto;html=1;fillColor=#a20025;strokeColor=#6F0000;" parent="1" source="EH5Xe4ztrHVGe37uZus8-31" target="EH5Xe4ztrHVGe37uZus8-16" edge="1">
          <mxGeometry relative="1" as="geometry" />
        </mxCell>
        <mxCell id="EH5Xe4ztrHVGe37uZus8-51" value="Knows" style="edgeLabel;html=1;align=center;verticalAlign=middle;resizable=0;points=[];" parent="EH5Xe4ztrHVGe37uZus8-50" vertex="1" connectable="0">
          <mxGeometry x="0.1167" relative="1" as="geometry">
            <mxPoint as="offset" />
          </mxGeometry>
        </mxCell>
        <mxCell id="EH5Xe4ztrHVGe37uZus8-54" style="edgeStyle=orthogonalEdgeStyle;rounded=0;orthogonalLoop=1;jettySize=auto;html=1;exitX=0.75;exitY=0;exitDx=0;exitDy=0;entryX=1;entryY=0.25;entryDx=0;entryDy=0;fillColor=#a20025;strokeColor=#6F0000;" parent="1" source="EH5Xe4ztrHVGe37uZus8-31" target="EH5Xe4ztrHVGe37uZus8-13" edge="1">
          <mxGeometry relative="1" as="geometry">
            <Array as="points">
              <mxPoint x="390" y="300" />
              <mxPoint x="820" y="300" />
              <mxPoint x="820" y="565" />
            </Array>
          </mxGeometry>
        </mxCell>
        <mxCell id="EH5Xe4ztrHVGe37uZus8-55" value="tera_type" style="edgeLabel;html=1;align=center;verticalAlign=middle;resizable=0;points=[];" parent="EH5Xe4ztrHVGe37uZus8-54" vertex="1" connectable="0">
          <mxGeometry x="-0.3748" y="1" relative="1" as="geometry">
            <mxPoint as="offset" />
          </mxGeometry>
        </mxCell>
        <mxCell id="EH5Xe4ztrHVGe37uZus8-31" value="Team member" style="rounded=1;whiteSpace=wrap;html=1;fillColor=#a20025;fontColor=#ffffff;strokeColor=#6F0000;" parent="1" vertex="1">
          <mxGeometry x="300" y="320" width="120" height="60" as="geometry" />
        </mxCell>
        <mxCell id="EH5Xe4ztrHVGe37uZus8-66" value="Country" style="rounded=1;whiteSpace=wrap;html=1;fillColor=#a20025;fontColor=#ffffff;strokeColor=#6F0000;" parent="1" vertex="1">
          <mxGeometry x="20" y="50" width="120" height="60" as="geometry" />
        </mxCell>
      </root>
    </mxGraphModel>
  </diagram>
</mxfile>
